<?xml version="1.0" encoding="utf-8"?>
<!-- Generator: Adobe Illustrator 15.1.0, SVG Export Plug-In . SVG Version: 6.00 Build 0)  -->
<!DOCTYPE svg PUBLIC "-//W3C//DTD SVG 1.1//EN" "http://www.w3.org/Graphics/SVG/1.1/DTD/svg11.dtd">
<svg version="1.1" id="Ebene_1" xmlns="http://www.w3.org/2000/svg" xmlns:xlink="http://www.w3.org/1999/xlink" x="0px" y="0px"
	 width="595.28px" height="841.89px" viewBox="0 0 595.28 841.89" enable-background="new 0 0 595.28 841.89" xml:space="preserve">
<path fill="#FFD700" d="M583.234,524.996c0,43.224-35.04,78.263-78.267,78.263h-410.2c-43.226,0-78.263-35.039-78.263-78.263
	V114.792c0-43.226,35.037-78.265,78.263-78.265h410.2c43.227,0,78.267,35.039,78.267,78.265V524.996z"/>
<g>
	<path d="M188.277,535.407c-0.158,0.554-0.395,0.999-0.709,1.333c-0.315,0.336-0.749,0.595-1.305,0.771
		c-0.552,0.178-1.234,0.304-2.042,0.385c-0.81,0.078-1.809,0.119-2.993,0.119c-1.225,0-2.264-0.041-3.11-0.119
		c-0.854-0.081-1.555-0.207-2.107-0.385c-0.552-0.177-0.967-0.436-1.245-0.771c-0.274-0.334-0.492-0.779-0.653-1.333l-16.056-57.896
		h-0.12l-14.816,57.896c-0.117,0.554-0.314,0.999-0.588,1.333c-0.278,0.336-0.677,0.595-1.188,0.771
		c-0.511,0.178-1.172,0.304-1.986,0.385c-0.805,0.078-1.845,0.119-3.109,0.119c-1.306,0-2.393-0.041-3.259-0.119
		c-0.871-0.081-1.583-0.207-2.135-0.385c-0.552-0.177-0.979-0.436-1.273-0.771c-0.294-0.334-0.503-0.779-0.621-1.333l-20.269-70.814
		c-0.238-0.908-0.367-1.619-0.383-2.133c-0.024-0.514,0.137-0.91,0.471-1.185c0.334-0.277,0.883-0.454,1.632-0.533
		c0.75-0.078,1.756-0.119,3.021-0.119c1.224,0,2.191,0.03,2.904,0.089c0.713,0.061,1.253,0.167,1.632,0.326
		c0.375,0.159,0.628,0.374,0.766,0.652c0.145,0.274,0.25,0.631,0.33,1.065l17.245,64.236h0.06l16.354-64.117
		c0.117-0.436,0.266-0.8,0.443-1.096s0.463-0.523,0.862-0.683c0.395-0.157,0.958-0.275,1.684-0.354
		c0.733-0.078,1.692-0.119,2.875-0.119c1.104,0,1.986,0.041,2.639,0.119c0.653,0.079,1.172,0.197,1.567,0.354
		c0.398,0.159,0.685,0.387,0.862,0.683c0.178,0.296,0.327,0.66,0.443,1.096l17.604,64.117h0.117l16.889-64.176
		c0.117-0.396,0.233-0.741,0.354-1.037s0.363-0.523,0.742-0.683c0.375-0.157,0.909-0.275,1.598-0.354
		c0.689-0.078,1.608-0.119,2.76-0.119c1.185,0,2.118,0.049,2.812,0.149c0.693,0.099,1.193,0.284,1.511,0.562
		c0.317,0.276,0.463,0.671,0.447,1.187c-0.024,0.512-0.129,1.223-0.33,2.131L188.277,535.407z"/>
	<path d="M245.294,517.513h-19.388l-6.28,18.429c-0.117,0.356-0.278,0.662-0.476,0.918c-0.197,0.256-0.482,0.476-0.857,0.652
		c-0.379,0.178-0.911,0.304-1.602,0.385c-0.689,0.078-1.588,0.119-2.692,0.119c-1.151,0-2.087-0.051-2.819-0.149
		c-0.729-0.099-1.241-0.286-1.539-0.562c-0.298-0.278-0.435-0.683-0.415-1.215c0.021-0.533,0.185-1.234,0.503-2.104l25.72-71.229
		c0.157-0.435,0.367-0.791,0.624-1.065c0.255-0.278,0.629-0.493,1.124-0.652c0.496-0.159,1.124-0.266,1.897-0.326
		c0.766-0.059,1.748-0.089,2.933-0.089c1.265,0,2.312,0.03,3.142,0.089c0.83,0.061,1.499,0.167,2.015,0.326
		c0.511,0.159,0.906,0.385,1.185,0.681c0.273,0.298,0.491,0.661,0.652,1.098l25.715,71.228c0.314,0.87,0.483,1.57,0.507,2.104
		c0.016,0.533-0.128,0.938-0.447,1.214c-0.318,0.278-0.841,0.453-1.571,0.534c-0.729,0.078-1.709,0.119-2.933,0.119
		c-1.225,0-2.203-0.03-2.932-0.089c-0.733-0.061-1.286-0.159-1.66-0.296c-0.375-0.14-0.653-0.326-0.83-0.564
		c-0.177-0.237-0.346-0.533-0.503-0.888l-6.578-18.666l-2.666-8.121l-13.395-38.221h-0.056l-13.22,38.221h14.174L245.294,517.513z"
		/>
	<path d="M345.493,533.452c0,0.791-0.133,1.462-0.399,2.016c-0.265,0.554-0.612,1.007-1.043,1.361
		c-0.427,0.356-0.906,0.612-1.438,0.771c-0.531,0.157-1.063,0.237-1.595,0.237h-3.371c-1.063,0-1.989-0.11-2.788-0.326
		c-0.797-0.218-1.555-0.612-2.267-1.186c-0.713-0.572-1.431-1.352-2.147-2.341c-0.713-0.987-1.474-2.252-2.272-3.793l-23.395-43.613
		c-1.226-2.252-2.457-4.612-3.698-7.082c-1.24-2.47-2.4-4.87-3.468-7.2h-0.117c0.081,2.844,0.137,5.748,0.177,8.711
		c0.041,2.965,0.056,5.907,0.056,8.83v46.28c0,0.277-0.081,0.544-0.25,0.802c-0.166,0.256-0.446,0.453-0.841,0.592
		c-0.399,0.137-0.915,0.256-1.563,0.354s-1.47,0.149-2.469,0.149c-1.003,0-1.829-0.051-2.474-0.149
		c-0.644-0.099-1.156-0.218-1.53-0.354c-0.379-0.139-0.644-0.336-0.813-0.592c-0.166-0.258-0.25-0.524-0.25-0.802v-70.756
		c0-1.578,0.448-2.705,1.346-3.376c0.898-0.67,1.878-1.007,2.937-1.007h5.015c1.185,0,2.17,0.099,2.964,0.296
		c0.799,0.195,1.511,0.521,2.144,0.978c0.628,0.453,1.245,1.086,1.837,1.895c0.588,0.813,1.208,1.829,1.86,3.054l17.982,33.659
		c1.107,2.054,2.175,4.059,3.207,6.016c1.03,1.953,2.021,3.88,2.979,5.776c0.951,1.897,1.897,3.762,2.832,5.601
		c0.939,1.835,1.864,3.685,2.779,5.539h0.061c-0.081-3.119-0.13-6.368-0.148-9.748c-0.021-3.378-0.028-6.626-0.028-9.748v-41.598
		c0-0.278,0.08-0.534,0.249-0.772c0.166-0.235,0.443-0.442,0.842-0.622c0.398-0.177,0.919-0.306,1.563-0.384
		c0.648-0.079,1.49-0.119,2.533-0.119c0.919,0,1.707,0.04,2.378,0.119c0.668,0.078,1.188,0.207,1.562,0.384
		c0.375,0.18,0.645,0.387,0.814,0.622c0.164,0.238,0.249,0.494,0.249,0.772V533.452z"/>
	<path d="M424.836,498.191c0,6.639-0.847,12.437-2.543,17.394c-1.699,4.959-4.178,9.067-7.436,12.326
		c-3.263,3.259-7.259,5.7-12.004,7.319c-4.736,1.621-10.389,2.429-16.946,2.429H369.67c-0.91,0-1.769-0.307-2.578-0.919
		c-0.809-0.611-1.217-1.688-1.217-3.228v-68.386c0-1.541,0.408-2.618,1.217-3.229c0.81-0.612,1.668-0.919,2.578-0.919h17.361
		c6.639,0,12.25,0.858,16.829,2.576c4.584,1.718,8.428,4.189,11.528,7.408c3.102,3.22,5.45,7.121,7.05,11.703
		C424.041,487.251,424.836,492.425,424.836,498.191z M414.116,498.606c0-4.146-0.516-8.008-1.543-11.585
		c-1.027-3.572-2.639-6.664-4.829-9.272c-2.191-2.608-4.972-4.643-8.326-6.104c-3.356-1.462-7.682-2.192-12.979-2.192H376.07v59.674
		h10.485c4.897,0,9.03-0.613,12.392-1.836c3.354-1.227,6.161-3.103,8.409-5.632c2.257-2.527,3.94-5.698,5.068-9.51
		C413.552,508.336,414.116,503.822,414.116,498.606z"/>
	<path d="M460.542,495.23c2.687,0,4.907-0.326,6.864-0.979c1.954-0.65,3.581-1.559,4.886-2.725c1.306-1.165,2.26-2.538,2.877-4.119
		c0.612-1.581,0.918-3.299,0.918-5.156c0-3.001-0.673-5.54-2.015-7.615c-1.345-2.072-3.597-3.564-6.754-4.473
		c-0.992-0.276-2.107-0.476-3.353-0.593c-1.245-0.118-2.872-0.179-4.891-0.179h-8.592v25.838v8.235v32.652
		c0,0.318-0.088,0.594-0.265,0.829c-0.178,0.238-0.455,0.426-0.83,0.564c-0.375,0.137-0.887,0.256-1.539,0.354
		s-1.475,0.149-2.461,0.149c-0.987,0-1.805-0.051-2.457-0.149c-0.653-0.099-1.176-0.218-1.571-0.354
		c-0.395-0.139-0.673-0.326-0.83-0.564c-0.156-0.235-0.237-0.511-0.237-0.829v-70.991c0-1.541,0.403-2.618,1.216-3.229
		c0.811-0.612,1.668-0.919,2.578-0.919h16.294c1.938,0,3.545,0.049,4.83,0.147c1.284,0.099,2.441,0.207,3.468,0.326
		c2.961,0.512,5.579,1.323,7.852,2.429c2.271,1.105,4.177,2.51,5.72,4.208c1.539,1.699,2.694,3.645,3.464,5.838
		c0.772,2.189,1.156,4.613,1.156,7.26c0,2.565-0.346,4.867-1.035,6.901c-0.693,2.036-1.691,3.833-2.993,5.394
		c-1.305,1.56-2.864,2.912-4.68,4.059c-1.822,1.146-3.855,2.115-6.107,2.904c1.266,0.554,2.409,1.255,3.439,2.103
		c1.027,0.852,1.986,1.867,2.872,3.053c0.891,1.185,1.728,2.547,2.518,4.087c0.79,1.543,1.584,3.281,2.373,5.217l6.876,16.888
		c0.552,1.422,0.906,2.421,1.063,2.993c0.156,0.574,0.237,1.02,0.237,1.333c0,0.318-0.061,0.594-0.178,0.829
		c-0.12,0.238-0.374,0.436-0.769,0.595c-0.396,0.155-0.95,0.273-1.659,0.354c-0.713,0.078-1.66,0.119-2.845,0.119
		c-1.03,0-1.869-0.041-2.521-0.119c-0.653-0.081-1.172-0.207-1.571-0.385c-0.39-0.177-0.7-0.425-0.917-0.741
		c-0.214-0.315-0.404-0.711-0.562-1.187l-7.052-18.071c-0.83-2.057-1.689-3.942-2.578-5.66c-0.891-1.72-1.945-3.2-3.17-4.444
		c-1.226-1.245-2.668-2.212-4.326-2.904c-0.83-0.345-1.745-0.604-2.739-0.777L460.542,495.23z"/>
</g>
<image display="none" overflow="visible" width="455" height="474" xlink:href="C706B416.jpg"  transform="matrix(0.4113 0 0 0.4113 316.5156 163.29)">
</image>
<image display="none" overflow="visible" width="573" height="717" xlink:href="C706B41A.jpg"  transform="matrix(0.3609 0 0 0.3609 85.5376 138.6689)">
</image>
<g>
	<g>
		<path fill="#020304" d="M-162.956,559.741c0.421,0,2.207-0.814,1.246-0.814C-162.131,558.927-163.917,559.741-162.956,559.741
			L-162.956,559.741z"/>
	</g>
</g>
<g id="Männchen">
	<path fill="#020203" d="M213.681,283.438c-5.984,0-12.304-0.998-18.771-3.056c-23.311-7.417-29.671-20.744-32.405-67.904
		c-2.762-47.64,32.341-54.867,32.696-54.934c1.356-0.255,2.666,0.633,2.923,1.989c0.257,1.355-0.631,2.663-1.985,2.922
		c-1.314,0.258-31.141,6.636-28.642,49.734c2.604,44.917,8.012,56.773,28.929,63.429c21.898,6.968,41.802,0.677,50.702-16.027
		c10.43-19.573,11.734-41.067,3.579-58.969c-0.2-0.451-4.649-10.247-15.552-10.805c-11.645-0.588-24.843,4.761-30.029,12.195
		c-0.79,1.132-2.349,1.41-3.48,0.62c-1.132-0.79-1.41-2.348-0.62-3.48c6.176-8.856,20.948-15.023,34.386-14.328
		c14.051,0.719,19.634,13.234,19.865,13.767c8.787,19.288,7.433,42.394-3.734,63.352
		C244.134,275.841,230.188,283.438,213.681,283.438z"/>
	<path fill="#020203" d="M192.332,187.167c-0.385,0-0.775-0.089-1.142-0.277c-1.228-0.631-1.711-2.139-1.08-3.367
		c6.499-12.637,17.353-14.58,17.812-14.656c1.362-0.23,2.65,0.693,2.877,2.055c0.227,1.358-0.688,2.643-2.042,2.875
		c-0.388,0.07-8.904,1.715-14.2,12.013C194.113,186.672,193.238,187.167,192.332,187.167z"/>
	<path fill="#020203" d="M204.999,187.167c-0.348,0-0.701-0.073-1.038-0.227c-1.255-0.574-1.808-2.058-1.234-3.313
		c5.999-13.121,18.627-12.164,19.161-12.118c1.375,0.121,2.392,1.334,2.271,2.71c-0.121,1.372-1.33,2.383-2.698,2.271
		c-0.415-0.03-9.691-0.618-14.186,9.215C206.854,186.625,205.947,187.167,204.999,187.167z"/>
	<path fill="#020203" d="M123.997,204.167c-1.187,0-2.24-0.849-2.458-2.058c-3.308-18.378,10.96-25.003,11.105-25.068
		c1.26-0.566,2.738-0.001,3.304,1.259c0.563,1.256,0.004,2.731-1.248,3.299c-0.473,0.219-10.835,5.206-8.24,19.625
		c0.245,1.359-0.659,2.659-2.018,2.903C124.293,204.154,124.144,204.167,123.997,204.167z"/>
	<path fill="#020203" d="M95.007,197.944c-0.077,0-0.155-0.003-0.234-0.011c-1.375-0.127-2.386-1.345-2.258-2.72
		c1.09-11.745,4.32-19.327,9.601-22.537c3.685-2.24,7.49-1.691,9.159-1.013c1.279,0.52,1.895,1.978,1.375,3.257
		c-0.515,1.271-1.957,1.886-3.229,1.387c-0.149-0.054-2.378-0.825-4.795,0.696c-2.616,1.645-5.977,6.219-7.132,18.673
		C97.374,196.971,96.284,197.944,95.007,197.944z"/>
	<path fill="#020203" d="M158.232,244.17c-6.318,0-8.348-4.167-8.999-6.931c-0.41-1.744-0.034-3.424,1.059-4.732
		c3.058-3.658,11.231-3.419,12.839-3.337c1.379,0.073,2.438,1.249,2.365,2.628c-0.073,1.378-1.233,2.437-2.628,2.365
		c-3.38-0.171-7.8,0.423-8.74,1.55c-0.051,0.062-0.092,0.11-0.028,0.381c0.45,1.912,1.381,3.862,6.743,2.787
		c1.356-0.27,2.671,0.608,2.942,1.961c0.271,1.354-0.607,2.671-1.961,2.942C160.494,244.051,159.302,244.17,158.232,244.17z"/>
	<path fill="#020203" d="M153.667,308.5c-0.999,0-1.942-0.603-2.329-1.589c-0.503-1.286,0.131-2.736,1.417-3.239
		c8.265-3.234,22.807-0.248,23.423-0.119c1.351,0.283,2.217,1.607,1.935,2.958c-0.283,1.352-1.61,2.216-2.958,1.936
		c-3.789-0.79-14.871-2.352-20.578-0.119C154.279,308.445,153.971,308.5,153.667,308.5z"/>
	<path fill="#020203" d="M193.669,337.167c-0.18,0-0.362-0.02-0.545-0.06c-1.348-0.3-2.198-1.635-1.898-2.983
		c0.485-2.183-0.468-16.79-1.037-25.517c-0.126-1.939-0.247-3.785-0.351-5.452c-0.668-10.695-0.028-21.9,0-22.372
		c0.081-1.378,1.271-2.43,2.641-2.35c1.378,0.081,2.431,1.263,2.35,2.641c-0.006,0.113-0.649,11.384,0,21.769
		c0.104,1.662,0.224,3.503,0.35,5.438c0.919,14.081,1.523,24.254,0.929,26.928C195.848,336.375,194.815,337.167,193.669,337.167z"/>
	<path fill="#020203" d="M242.236,330.167c-0.766,0-1.521-0.35-2.012-1.013c-0.658-0.889-0.638-2.07-0.035-2.927
		c0.171-1.017-0.026-3.991-0.404-5.831l-0.184-0.88c-0.768-3.671-2.808-13.424-3.421-19.255c-0.678-6.445-0.039-21.085-0.011-21.706
		c0.061-1.38,1.229-2.445,2.608-2.387c1.379,0.062,2.448,1.229,2.387,2.608c-0.007,0.148-0.65,14.886-0.011,20.96
		c0.587,5.579,2.661,15.496,3.343,18.754l0.187,0.898c0.4,1.95,1.515,8.454-0.962,10.286
		C243.274,330.007,242.753,330.167,242.236,330.167z"/>
	<path fill="#020203" d="M196.002,343.834c-0.938,0-1.836-0.53-2.263-1.434c-0.589-1.249-0.055-2.738,1.193-3.328
		c0.506-0.239,12.516-5.864,23.16-6.894c10.424-1.009,22.378-1.345,24.656-1.345h3.584c1.381,0,2.5,1.119,2.5,2.5
		s-1.119,2.5-2.5,2.5h-3.584c-2.227,0-13.931,0.331-24.175,1.322c-9.766,0.945-21.391,6.384-21.507,6.439
		C196.722,343.757,196.359,343.834,196.002,343.834z"/>
	<path fill="#020203" d="M201.471,366.682l-1.928-0.643c-0.345-0.115-8.542-2.896-16.81-9.785c-3.191-2.659-5.023-4.624-6.235-5.924
		c-0.539-0.578-1.146-1.229-1.412-1.405c-0.089,0.005-0.309,0.031-0.762,0.154c-2.642,0.72-12.058,8.958-13.289,11.235
		c-0.322,1.207-1.498,2.007-2.771,1.827c-1.367-0.196-2.315-1.463-2.119-2.83c0.492-3.426,12.832-13.957,16.863-15.057
		c3.716-1.011,5.154,0.53,7.146,2.666c1.194,1.281,2.829,3.034,5.779,5.493c5.293,4.411,10.593,6.99,13.315,8.147l11.923-20.484
		c0.694-1.192,2.224-1.599,3.418-0.903c1.193,0.695,1.597,2.225,0.903,3.418L201.471,366.682z"/>
	<path fill="#020203" d="M256.798,371.177c-0.222,0-0.427-0.02-0.621-0.059c-0.917-0.184-2.452-0.49-28.333-28.075
		c-0.945-1.007-0.894-2.589,0.113-3.534c1.006-0.945,2.588-0.895,3.534,0.113c10.609,11.307,22.716,23.846,25.777,26.428
		c1.946-0.639,6.849-3.239,9.61-4.703c1.414-0.75,2.698-1.431,3.671-1.917l0.338-0.139c0.361-0.119,8.881-2.911,12.354-3.512
		c1.359-0.235,2.654,0.677,2.89,2.037s-0.677,2.654-2.037,2.89c-2.525,0.437-8.968,2.46-11.471,3.278
		c-0.924,0.465-2.107,1.093-3.403,1.78C261.779,369.711,258.688,371.177,256.798,371.177z"/>
	<path fill="#020203" d="M268.338,393.377c-2.686,0-6.04-0.347-10.203-0.899c-4.982-0.661-8.695-3.053-13.833-6.363
		c-3.403-2.193-7.639-4.921-13.441-7.89c-12.757-6.527-22.844-6.159-32.599-5.803l-2.182,0.076
		c-8.36,0.27-31.37,7.993-43.648,12.515c-5.543,2.041-11.99,3.379-12.261,3.436c-1.351,0.278-2.674-0.592-2.953-1.944
		c-0.279-1.353,0.591-2.674,1.943-2.954c0.063-0.013,6.358-1.321,11.543-3.23c5.646-2.079,34.365-12.47,45.214-12.819l2.16-0.076
		c9.912-0.359,21.143-0.771,35.059,6.349c6.023,3.082,10.375,5.885,13.872,8.138c4.763,3.068,7.909,5.095,11.782,5.609
		c3.645,0.484,11.231,1.491,13.301,0.308c1.199-0.683,2.727-0.268,3.411,0.931c0.685,1.199,0.268,2.726-0.931,3.411
		C273.08,393.024,271.05,393.377,268.338,393.377z"/>
	<path fill="#020203" d="M209.225,263.267c-4.58,0-13.399-2.822-17.566-10.395c-4.019-7.303,1.49-18.159,2.131-19.373
		c0.424-0.802,1.25-1.312,2.157-1.331c0.884-0.028,1.754,0.455,2.212,1.238c0.82,1.403,2.57,4.002,3.775,5.007
		c1.427,1.189,10.539,4.798,19.766,6.812c7.444,1.623,12.433-4.772,12.642-5.044c0.836-1.093,2.403-1.309,3.5-0.477
		s1.318,2.39,0.49,3.491c-0.222,0.295-4.413,5.752-11.288,7.034c0.757,1.072,0.556,2.561-0.482,3.392
		c-0.012,0.01-1.505,1.218-2.974,2.981C221.348,259.289,215.233,263.267,209.225,263.267z M196.514,239.873
		c-1.157,3.398-2.017,7.787-0.475,10.589c2.93,5.324,9.6,7.805,13.186,7.805c4.246,0,9.106-3.168,10.522-4.867
		c1.08-1.296,2.16-2.337,2.871-2.978c-0.645-0.062-1.307-0.164-1.983-0.312c-8.844-1.929-19.283-5.673-21.901-7.855
		C197.976,241.624,197.209,240.76,196.514,239.873z"/>
	<path fill="#020203" d="M229.667,225.833c-0.606,0-1.214-0.219-1.695-0.663c-1.015-0.937-1.078-2.518-0.141-3.533
		c3.012-3.263,2.413-6.667,2.386-6.81c-0.253-1.345,0.619-2.659,1.961-2.929c1.341-0.273,2.647,0.572,2.934,1.911
		c0.052,0.242,1.216,5.994-3.607,11.22C231.011,225.563,230.34,225.833,229.667,225.833z"/>
	<path fill="#020203" d="M221.168,221.333c-0.724,0-1.442-0.313-1.937-0.917c-0.874-1.068-0.717-2.644,0.352-3.518
		c3.644-2.981,2.35-5.157,2.336-5.178c-0.766-1.148-0.456-2.701,0.693-3.467c1.149-0.767,2.701-0.455,3.467,0.693
		c1.357,2.036,2.408,7.126-3.33,11.822C222.286,221.148,221.725,221.333,221.168,221.333z"/>
	<path fill="#020203" d="M213.551,319.195c-1.273,0-1.922-0.027-2.008-0.031c-1.378-0.063-2.445-1.23-2.383-2.609
		s1.234-2.44,2.608-2.386c0.073,0.004,7.445,0.299,24.327-1.324c1.371-0.14,2.596,0.875,2.728,2.249
		c0.132,1.375-0.875,2.596-2.249,2.728C224.133,319.018,216.804,319.195,213.551,319.195z"/>
	<path fill="#020203" d="M242.746,299.5c-1.18,0-2.23-0.839-2.455-2.042c-0.253-1.357,0.641-2.663,1.999-2.917
		c0.088-0.017,8.874-1.66,11.437-2.301c0.971-0.243,1.483-0.653,2.65-1.64c0.877-0.741,1.968-1.664,3.614-2.711
		c2.7-1.718,4.33-2.755,5.713-0.68c0.322,0.482,1.193,2.181-1.106,3.787c-0.222,0.154-0.459,0.268-0.705,0.343
		c-0.293,0.183-0.688,0.432-1.218,0.77c-1.361,0.866-2.269,1.633-3.07,2.311c-1.3,1.1-2.528,2.138-4.666,2.672
		c-2.708,0.678-11.365,2.296-11.732,2.365C243.053,299.486,242.898,299.5,242.746,299.5z"/>
	<path fill="#020203" d="M263.859,302.359c-2.393,0-5.845-0.407-7.413-2.55l-1.463-2c-0.815-1.114-0.573-2.678,0.542-3.494
		c1.114-0.815,2.678-0.573,3.494,0.542l1.463,2c0.479,0.375,2.957,0.624,4.943,0.428c1.378-0.131,2.597,0.871,2.731,2.246
		c0.134,1.374-0.871,2.597-2.246,2.731C265.461,302.305,264.73,302.359,263.859,302.359z"/>
	<path fill="#020203" d="M244.998,316.5c-1.333,0-2.441-1.053-2.496-2.398c-0.056-1.379,1.017-2.543,2.396-2.6
		c6.125-0.25,16.895-1.134,19.721-2.438c1.255-0.577,2.739-0.031,3.318,1.222c0.579,1.254,0.031,2.739-1.222,3.318
		c-4.649,2.146-19.89,2.824-21.613,2.895C245.067,316.5,245.033,316.5,244.998,316.5z"/>
	<path fill="#020203" d="M261.333,322.393c-0.669,0-1.337-0.268-1.829-0.796c-1.495-1.606-6.114-7.105-2.822-10.451
		c0.968-0.984,2.551-0.998,3.536-0.028c0.862,0.849,0.979,2.169,0.342,3.146c0.209,0.82,1.386,2.611,2.606,3.929
		c0.938,1.012,0.879,2.594-0.132,3.532C262.552,322.172,261.941,322.393,261.333,322.393z"/>
	<path fill="#020203" d="M110.333,328.629c-1.063,0-2.048-0.683-2.384-1.75c-0.415-1.317,0.317-2.721,1.634-3.136
		c0.478-0.15,11.872-3.688,26.643-3.966c13.693-0.255,21.747,0.907,27.629,1.757l1.344,0.193c1.367,0.194,2.318,1.459,2.124,2.826
		s-1.458,2.32-2.826,2.124l-1.358-0.195c-5.713-0.827-13.54-1.956-26.819-1.707c-14.059,0.266-25.126,3.702-25.236,3.737
		C110.834,328.592,110.582,328.629,110.333,328.629z"/>
</g>
<g>
	<path fill="#020203" d="M326.299,276.542c-3.743,0-6.154-0.417-7.489-0.649l-0.525-0.088c-1.364-0.212-2.299-1.489-2.088-2.854
		s1.484-2.301,2.854-2.088c0.175,0.027,0.379,0.063,0.613,0.103c2.474,0.429,9.044,1.568,22.116-1.404
		c13.864-3.151,24.434-12.649,24.539-12.745c1.023-0.93,2.604-0.853,3.531,0.168c0.929,1.022,0.854,2.603-0.168,3.532
		c-0.469,0.426-11.661,10.481-26.795,13.921C335.677,276.077,330.247,276.542,326.299,276.542z"/>
	<path fill="#020203" d="M333.331,265.834c-0.4,0-0.806-0.096-1.184-0.299c-1.215-0.654-1.67-2.17-1.016-3.386
		c2.965-5.508,10.421-5.961,10.737-5.978c1.368-0.075,2.556,0.987,2.627,2.365c0.073,1.376-0.981,2.551-2.356,2.627
		c-1.381,0.083-5.256,0.849-6.605,3.355C335.083,265.357,334.221,265.834,333.331,265.834z"/>
	<path fill="#020203" d="M494.036,348.993c-4.061,0-11.013-0.581-19.093-1.856c-3.256-0.514-7.076-1.241-11.5-2.083
		c-13.114-2.496-31.074-5.916-55.313-7.894c-31.441-2.568-53.004,9.554-53.218,9.676c-1.198,0.686-2.726,0.273-3.412-0.924
		c-0.687-1.196-0.276-2.722,0.92-3.411c0.925-0.533,23.05-13.022,56.116-10.325c24.506,2,42.617,5.448,55.843,7.966
		c4.382,0.834,8.167,1.555,11.344,2.057c11.934,1.884,19.059,1.926,20.272,1.728c1.276-0.354,2.62,0.347,3.044,1.617
		c0.437,1.31-0.271,2.726-1.581,3.163C496.891,348.894,495.709,348.993,494.036,348.993z"/>
	<path fill="#020203" d="M372.997,324.74c-0.435,0-0.876-0.113-1.277-0.353c-1.185-0.707-1.574-2.239-0.868-3.425
		c0.057-0.094,1.431-2.391,6.417-9.704c3.729-5.469,4.965-6.69,8.572-6.126c0.632,0.098,1.348,0.209,2.393,0.168
		c4.116-0.154,6.656,1.633,9.887,3.909c1.661,1.171,3.545,2.498,6.11,3.948c4.058,2.294,6.462,3.522,7.874,4.151
		c0.309-1.544,0.949-3.673,2.241-6.904c2.153-5.384,8.413-12.002,8.679-12.282c0.951-1,2.533-1.042,3.533-0.089
		c1.001,0.951,1.041,2.533,0.091,3.534c-0.059,0.062-5.864,6.205-7.66,10.694c-1.909,4.773-2.154,6.585-2.154,7.631
		c0,1.085-0.542,2.049-1.449,2.579c-1.845,1.076-3.855,0.556-13.615-4.962c-2.781-1.572-4.859-3.037-6.529-4.213
		c-3.127-2.202-4.474-3.098-6.806-3c-1.535,0.062-2.593-0.103-3.364-0.224c-0.191-0.03-0.417-0.065-0.562-0.08
		c-0.704,0.556-2.501,3.189-3.109,4.082c-4.86,7.128-6.239,9.424-6.252,9.446C374.679,324.305,373.849,324.74,372.997,324.74z"/>
	<path fill="#020203" d="M460.132,327.388c-0.309,0-0.614-0.02-0.918-0.06c-3.549-0.462-5.776-3.511-7.565-5.96
		c-3.256-4.456-5.831-19.418-6.114-21.11c-0.228-1.362,0.691-2.65,2.053-2.878c1.365-0.221,2.651,0.692,2.879,2.053
		c0.994,5.939,3.291,16.345,5.22,18.986c1.56,2.134,2.856,3.78,4.175,3.952c1.044,0.137,2.586-0.579,4.43-2.072
		c6.833-5.535,14.156-7.323,14.465-7.397c1.344-0.322,2.691,0.511,3.011,1.853c0.32,1.343-0.51,2.691-1.853,3.011
		c-0.061,0.015-6.561,1.626-12.477,6.418C464.783,326.333,462.383,327.388,460.132,327.388z"/>
	<path fill="#020203" d="M377.667,276.545c-0.289,0-0.583-0.05-0.869-0.157c-1.295-0.48-1.955-1.919-1.475-3.213
		c2.446-6.594,10.121-7.534,12.814-7.658c2.347-1.819,7.069-5.852,8.544-8.802c1.922-3.843,4.096-8.204,8.442-6.753
		c0.701,0.233,2.834,0.944,9.977,12.017c0.749,1.16,0.415,2.707-0.745,3.456c-1.158,0.748-2.708,0.416-3.456-0.745
		c-2.577-3.994-5.971-8.669-7.326-9.878c-0.729,0.761-1.98,3.264-2.419,4.142c-2.449,4.895-9.834,10.442-10.668,11.058l-0.693,0.512
		l-0.861-0.023c-0.063,0.002-7.244-0.104-8.921,4.415C379.637,275.922,378.683,276.545,377.667,276.545z"/>
	<path fill="#020203" d="M387.667,281.167c-0.291,0-0.587-0.051-0.876-0.159c-1.293-0.484-1.948-1.924-1.466-3.217
		c1.276-3.414,2.027-7.534,1.547-8.479c-0.731-1.171-0.371-2.707,0.8-3.438c1.17-0.732,2.716-0.37,3.448,0.802
		c2.094,3.352-0.08,10.116-1.112,12.869C389.632,280.548,388.68,281.167,387.667,281.167z"/>
	<path fill="#020203" d="M405.998,295.299c-0.465,0-0.935-0.129-1.354-0.4c-1.16-0.749-1.494-2.296-0.745-3.457
		c0.021-0.032,2.543-4.062,5.373-13.494c2.945-9.817,7.913-30.604,7.963-30.813c0.32-1.343,1.677-2.168,3.012-1.851
		c1.344,0.32,2.172,1.669,1.852,3.012c-0.05,0.21-5.051,21.135-8.037,31.088c-3.066,10.222-5.845,14.588-5.961,14.769
		C407.622,294.895,406.818,295.299,405.998,295.299z"/>
	<path fill="#020203" d="M408.002,302.346c-0.914,0-1.795-0.503-2.234-1.375c-0.621-1.233-0.126-2.736,1.107-3.358
		c3.939-1.986,14.397-4.764,25.679-3.77c11.065,0.977,21.835,0.918,26.19-0.139l4.666-1.134c1.344-0.327,2.693,0.498,3.02,1.839
		c0.325,1.342-0.498,2.694-1.84,3.02l-4.666,1.134c-4.902,1.191-16.079,1.295-27.81,0.261c-10.624-0.938-20.079,1.787-22.989,3.254
		C408.765,302.26,408.38,302.346,408.002,302.346z"/>
	<path fill="#020203" d="M467.997,295.297c-0.665,0-1.328-0.265-1.82-0.788c-0.09-0.096-2.222-2.386-4.669-6.583
		c-0.938-1.606-2.397-2.956-3.942-4.384c-1.854-1.712-3.77-3.483-4.841-5.841c-1-2.198-1.051-3.94-1.093-5.34
		c-0.038-1.287-0.059-1.995-0.712-2.975c-2.057-3.084-9.972-20.699-10.867-22.697c-0.564-1.26-0.001-2.739,1.259-3.304
		c1.259-0.564,2.739-0.002,3.304,1.259c3.449,7.695,9.083,19.896,10.465,21.969c1.448,2.173,1.505,4.074,1.55,5.601
		c0.034,1.146,0.063,2.136,0.646,3.418c0.655,1.439,2.126,2.799,3.684,4.238c1.666,1.54,3.555,3.285,4.867,5.537
		c2.138,3.666,3.982,5.665,4.001,5.685c0.938,1.009,0.885,2.59-0.123,3.531C469.222,295.074,468.609,295.297,467.997,295.297z"/>
	<path fill="#020203" d="M455.165,270.5c-0.465,0-0.936-0.13-1.354-0.401c-1.16-0.749-1.493-2.297-0.743-3.457
		c0.737-1.141,7.321-11.218,11.489-13.774c2.7-1.657,5.345-3.855,6.432-5.028c-0.011-0.066-0.019-0.127-0.023-0.182
		c-0.088-0.945,0.308-1.642,0.66-2.087c-0.61-1.067-0.354-2.448,0.646-3.22c1.094-0.842,2.664-0.639,3.506,0.456
		c0.784,1.018,1.774,2.906,0.509,4.938c0.01,0.114,0.013,0.229,0.009,0.345c-0.123,3.423-8.203,8.476-9.125,9.04
		c-2.418,1.483-7.357,8.286-9.903,12.226C456.788,270.097,455.985,270.5,455.165,270.5z"/>
	<path fill="#020203" d="M475.934,252.297c-0.621,0-1.269-0.051-1.946-0.163c-1.362-0.225-2.284-1.512-2.06-2.874
		c0.225-1.362,1.505-2.285,2.874-2.06c4.202,0.692,5.953-2.633,5.971-2.667c0.625-1.231,2.132-1.72,3.361-1.094
		c1.23,0.626,1.721,2.131,1.094,3.362C484.188,248.845,481.015,252.297,475.934,252.297z"/>
	<path fill="#020203" d="M343.331,219.5c-1.297,0-2.393-1.001-2.49-2.315c-0.102-1.377,0.932-2.576,2.309-2.678
		c0.087-0.006,8.762-0.666,13.738-2.299c2.479-0.814,4.101-2.603,5.979-4.675c1.498-1.654,3.047-3.363,5.157-4.663
		c0.605-0.372,1.217-0.771,1.851-1.185c4.046-2.64,9.082-5.925,18.469-6.841c11.293-1.093,19.078,6.382,19.404,6.7
		c0.987,0.965,1.006,2.548,0.041,3.536c-0.966,0.986-2.543,1.004-3.531,0.045c-0.12-0.115-6.565-6.171-15.428-5.304
		c-8.168,0.796-12.447,3.588-16.223,6.052c-0.672,0.438-1.32,0.861-1.962,1.256c-1.504,0.925-2.752,2.303-4.073,3.761
		c-2.057,2.27-4.387,4.842-8.125,6.069c-5.56,1.824-14.548,2.506-14.928,2.534C343.456,219.498,343.394,219.5,343.331,219.5z"/>
	<path fill="#020203" d="M347.997,224.5c-1.245,0-2.323-0.929-2.479-2.196c-0.168-1.371,0.807-2.618,2.177-2.786
		c0.19-0.023,19.105-2.345,26.701-3.17c2.961-0.323,6.088-0.248,9.117-0.175c4.11,0.1,8.771,0.209,10.147-1.031
		c0.444-0.399,0.479-0.672,0.272-2.088c-0.221-1.511-0.808-5.526,4.53-6.512c5.731-1.058,8.078-0.132,8.822,0.315l-2.572,4.287
		c0,0,0.057,0.049,0.196,0.103c-0.016-0.006-1.461-0.542-5.538,0.212c-0.265,0.049-0.454,0.1-0.585,0.144
		c0.021,0.223,0.063,0.511,0.094,0.729c0.219,1.495,0.626,4.277-1.874,6.528c-2.855,2.57-7.842,2.453-13.612,2.313
		c-2.863-0.068-5.823-0.138-8.457,0.147c-7.563,0.822-26.443,3.139-26.633,3.163C348.201,224.494,348.099,224.5,347.997,224.5z"/>
	<path fill="#020203" d="M430.674,246.837l-0.132-0.006c-0.896-0.045-21.999-1.279-24.998-17.029
		c-2.805-14.729,1.812-35.393,12.919-41.497c3.369-1.852,10.283-4.958,18.729-4.958c9.796,0,18.146,4.289,24.151,12.402
		c5.236,7.076,6.933,15.773,4.776,24.49c-2.057,8.314-7.43,15.822-13.369,18.681c-2.497,1.202-4.279,2.275-5.852,3.222
		c-4.031,2.426-6.944,4.18-16.094,4.688L430.674,246.837z M437.192,188.347c-5.354,0-11.303,1.582-16.321,4.339
		c-8.966,4.927-12.894,23.165-10.415,36.18c2.166,11.376,18.655,12.85,20.221,12.963c7.789-0.447,9.876-1.703,13.644-3.972
		c1.667-1.003,3.555-2.14,6.263-3.443c3.881-1.869,8.797-7.75,10.684-15.377c1.268-5.125,1.612-12.809-3.942-20.314
		C452.229,191.838,445.456,188.347,437.192,188.347z"/>
	<path fill="#020203" d="M438.358,235.493c-1.534,0-3.564-0.406-6.553-1.503c-8.828-3.24-9.13-11.576-9.138-11.93
		c-0.033-1.38,1.059-2.526,2.439-2.56c0.02,0,0.04,0,0.061,0c1.347,0,2.455,1.07,2.498,2.421c0.012,0.26,0.313,5.338,5.862,7.374
		c4.55,1.67,5.366,1.227,6.229,0.756c0.485-0.264,1.088-0.592,1.913-0.819c1.333-0.368,2.707,0.415,3.074,1.746
		c0.367,1.332-0.415,2.708-1.746,3.074c-0.27,0.074-0.513,0.207-0.851,0.391C441.074,235.027,440,235.493,438.358,235.493z"/>
	<path fill="#020203" d="M417.331,212.833c-1.269,0-2.355-0.962-2.484-2.251c-0.138-1.374,0.865-2.599,2.239-2.736
		c2.721-0.271,4.647-1.335,13.271-6.642c8.332-5.126,15.82-12.422,15.895-12.496c0.986-0.965,2.57-0.948,3.535,0.038
		c0.966,0.987,0.949,2.569-0.037,3.536c-0.321,0.314-7.968,7.763-16.771,13.181c-8.766,5.394-11.468,6.966-15.396,7.358
		C417.498,212.83,417.414,212.833,417.331,212.833z"/>
	<path fill="#020203" d="M444.981,218.306c-0.326,0-0.658-0.063-0.976-0.195c-1.756-0.731-3.728-3.258-4.746-4.699
		c-0.796-1.127-0.528-2.686,0.599-3.483c1.126-0.797,2.688-0.53,3.484,0.597c0.922,1.302,2.185,2.732,2.65,3
		c1.274,0.531,1.845,1.979,1.314,3.253C446.909,217.736,445.967,218.306,444.981,218.306z"/>
	<path fill="#020203" d="M454.314,217.303c-0.067,0-0.135-0.002-0.202-0.008c-3.821-0.306-6.312-3.441-6.583-3.797
		c-0.836-1.099-0.624-2.667,0.475-3.503c1.097-0.833,2.656-0.625,3.494,0.463c0.379,0.481,1.652,1.745,3.013,1.854
		c1.377,0.11,2.403,1.315,2.293,2.691C456.699,216.311,455.604,217.303,454.314,217.303z"/>
</g>
</svg>
